<?xml version="1.0" encoding="UTF-8"?>
<svg id="Layer_2" data-name="Layer 2" xmlns="http://www.w3.org/2000/svg" viewBox="0 0 2196.74 832.55">
  <defs>
    <style>
      .cls-1 {
        fill: #282827;
      }

      .cls-2 {
        fill: #e0ab3d;
      }

      .cls-3 {
        fill: #a41e22;
      }

      .cls-4 {
        fill: #231f20;
      }
    </style>
  </defs>
  <g id="Layer_1-2" data-name="Layer 1">
    <g>
      <g>
        <path class="cls-3" d="m531.29,828.35c-11.8-12.46-52.35-46.01-75.52-62.52-26.45-18.8-44.7-30.49-72.46-46.45-17.6-10.16-64.92-34.65-76.18-39.35-2.95-1.31-8.42-3.72-12.02-5.25-10.93-4.92-20.98-9.18-39.13-16.5-50.06-20.33-95.09-47.76-134.11-81.75-16.94-14.75-22.62-20.11-33.55-32.35-19.24-21.2-26.12-30.06-39.02-49.51-23.17-34.87-37.71-68.97-45.69-107-3.39-16.18-3.5-17.6-3.61-44.05,0-29.4.55-34.54,6.23-56.83,16.5-64.27,56.07-112.25,109.95-133.23,44.59-17.38,104.05-16.61,158.37,1.97,24.7,8.42,56.94,25.9,70.82,38.47,2.4,2.19,3.61,3.5,2.73,2.95-6.34-4.15-43.28-16.83-64.05-22.08-71.81-18.03-127.66-11.26-175.2,21.09-37.49,25.58-60.99,62.74-69.62,110.5-2.73,15.3-2.84,49.95,0,66.56,5.36,32.24,16.72,63.72,33.77,93.01,23.39,40.44,64.05,82.96,109.51,114.98,11.48,7.98,33.12,22.19,33.88,22.19.33,0,3.61,1.86,7.32,4.15,7.98,4.81,24.92,13.88,48.42,25.79,9.07,4.48,19.56,10.06,23.5,12.24,28.31,15.63,35.08,19.45,39.89,22.51,3.06,1.86,11.15,6.89,18.03,11.15,14.54,8.85,42.73,27.87,54.65,36.61,4.48,3.39,9.95,7.21,12.02,8.74,2.08,1.42,4.04,2.95,4.37,3.28.33.44,3.72,3.17,7.65,6.12,3.93,2.95,10.27,8.09,14.21,11.37,3.93,3.17,9.51,7.87,12.57,10.38,2.95,2.4,7.32,6.23,9.84,8.42,2.4,2.08,6.34,5.57,8.74,7.65,10.93,9.29,47.98,47.33,55.09,56.51,4.48,5.79,3.93,5.9-1.42.22Z"/>
        <path class="cls-3" d="m549.32,788.35c-.22-3.72,7.1-31.81,11.8-45.25,4.92-14.32,7.87-21.97,11.69-30.38,1.42-3.17,2.62-6.01,2.62-6.34s4.15-8.74,9.18-18.8c17.05-34.1,36.83-65.47,62.63-99.35,7.65-10.06,9.95-12.35,12.24-12.35,12.57-.22,29.95-.11,30.17.22.22.22-4.37,5.79-10.06,12.35-53.01,61.32-84.81,105.8-109.73,153.01-5.79,11.26-15.74,34.54-19.02,44.81-.87,2.62-1.42,3.5-1.53,2.08Z"/>
        <path class="cls-3" d="m406.58,338.7c.44-3.93,1.42-14.75,2.3-24.05,1.75-17.92,3.39-90.72,2.19-95.42l-.66-2.73-19.02.55-18.91.66-2.95-4.92c-1.53-2.62-3.17-6.34-3.5-8.2l-.66-3.28,21.53-.55c11.8-.33,21.75-.87,22.08-1.31,1.42-1.42-5.14-43.06-7.87-50.06-.66-1.64-.11-1.97,3.83-1.97,6.56,0,14.1,2.19,14.65,4.26.77,2.51,4.7,29.95,5.57,38.69.77,6.99.87,7.32,3.72,7.32,3.39,0,32.79-3.72,45.69-5.79,11.04-1.75,10.6-.87-2.62,6.01-10.82,5.68-24.05,10.6-36.61,13.55l-8.53,1.97v21.86c0,24.26-1.86,44.26-6.01,64.7-2.84,13.99-9.95,37.27-13.12,42.73q-1.75,2.95-1.09-4.04Z"/>
        <path class="cls-3" d="m785.12,169.25c-7.43-28.45-24.55-60.49-44.82-84.25-32.65-38.08-75.36-59.51-119.49-59.65-13.19,0-37.46,3.95-55.21,9.14-39.32,11.36-75.47,33.04-98.19,58.8-2.15,2.36-4.15,4.35-4.58,4.42-1.94.33,6.88-15.78,13.83-25.26,25-34,59.49-55.63,106.29-66.69,17.69-4.19,36.31-6.2,52.46-5.69,73.89,2.46,140.01,53.77,170.57,132.32,3.69,9.47,11.05,32.84,11.91,38.01.27,1.62-1.09,2.07-15.21,4.43l-15.41,2.58-2.15-8.17Z"/>
      </g>
      <g>
        <polygon class="cls-1" points="245.29 228.22 284.21 228.22 475.42 476.6 475.42 377.16 705.06 377.16 705.06 228.22 755.99 228.22 755.99 428.56 525.86 428.56 525.86 577.01 487.91 577.01 245.29 261.37 245.29 228.22"/>
        <polyline class="cls-2" points="296.06 347.81 296.06 576.87 245.29 576.87 245.29 282.1"/>
        <polyline class="cls-2" points="525.68 228.22 525.68 257.72 525.68 364.51 475.4 364.51 475.4 228.22"/>
        <polyline class="cls-2" points="755.78 441.43 755.78 470.82 755.78 577.23 705.24 577.23 705.24 441.43"/>
        <rect class="cls-1" x="755.91" y="228.22" width="116.89" height="50.11"/>
        <rect class="cls-2" x="769.14" y="376.63" width="118.33" height="52.11"/>
        <path class="cls-2" d="m886.03,227.83v52.12c26.69,0,48.34,21.64,48.34,48.34s-21.64,48.34-48.34,48.34v52.12c55.48,0,100.46-44.98,100.46-100.46s-44.98-100.46-100.46-100.46Z"/>
      </g>
    </g>
    <g>
      <path class="cls-4" d="m949.55,608.59h-39.39v129.48c0,7.46-1.66,12.99-4.98,16.6-3.33,3.61-7.62,5.41-12.89,5.41s-9.71-1.82-13.07-5.47c-3.36-3.65-5.05-9.16-5.05-16.54v-129.48h-39.39c-6.16,0-10.74-1.36-13.74-4.07-3-2.71-4.5-6.3-4.5-10.76s1.56-8.27,4.68-10.94c3.12-2.67,7.64-4.01,13.56-4.01h114.77c6.24,0,10.88,1.38,13.92,4.13,3.04,2.76,4.56,6.36,4.56,10.82s-1.54,8.05-4.62,10.76c-3.08,2.72-7.7,4.07-13.86,4.07Z"/>
      <path class="cls-4" d="m1064.08,700.75h-64.93c.08,7.54,1.6,14.18,4.56,19.94,2.96,5.76,6.89,10.09,11.79,13.01,4.9,2.92,10.31,4.38,16.23,4.38,3.97,0,7.6-.47,10.88-1.4,3.28-.93,6.46-2.39,9.54-4.38,3.08-1.98,5.92-4.11,8.51-6.38,2.59-2.27,5.96-5.35,10.09-9.24,1.7-1.46,4.13-2.19,7.29-2.19,3.4,0,6.16.93,8.27,2.8,2.11,1.87,3.16,4.5,3.16,7.9,0,3-1.18,6.5-3.53,10.52-2.35,4.01-5.9,7.86-10.64,11.55-4.74,3.69-10.7,6.75-17.87,9.18-7.17,2.43-15.42,3.65-24.74,3.65-21.32,0-37.89-6.08-49.73-18.24-11.83-12.16-17.75-28.65-17.75-49.48,0-9.81,1.46-18.91,4.38-27.29,2.92-8.39,7.17-15.58,12.77-21.58,5.59-6,12.48-10.6,20.67-13.8,8.19-3.2,17.27-4.8,27.23-4.8,12.97,0,24.09,2.74,33.38,8.21,9.28,5.47,16.23,12.54,20.85,21.22,4.62,8.67,6.93,17.51,6.93,26.5,0,8.35-2.39,13.76-7.17,16.23-4.78,2.47-11.51,3.71-20.18,3.71Zm-64.93-18.85h60.18c-.81-11.35-3.87-19.84-9.18-25.47-5.31-5.63-12.3-8.45-20.97-8.45s-15.06,2.86-20.37,8.57c-5.31,5.71-8.53,14.16-9.67,25.35Z"/>
      <path class="cls-4" d="m1238.43,718.98c0,4.13-1.24,8.55-3.71,13.25-2.47,4.7-6.24,9.18-11.31,13.43-5.07,4.26-11.45,7.68-19.15,10.27-7.7,2.59-16.37,3.89-26.02,3.89-20.51,0-36.52-5.98-48.02-17.93-11.51-11.96-17.26-27.98-17.26-48.09,0-13.62,2.63-25.65,7.9-36.11,5.27-10.46,12.89-18.54,22.86-24.26,9.97-5.71,21.88-8.57,35.75-8.57,8.59,0,16.47,1.26,23.65,3.77,7.17,2.51,13.25,5.76,18.24,9.73,4.98,3.97,8.79,8.21,11.43,12.71,2.63,4.5,3.95,8.69,3.95,12.58s-1.48,7.34-4.44,10.09c-2.96,2.76-6.55,4.13-10.76,4.13-2.76,0-5.04-.71-6.87-2.13-1.82-1.42-3.87-3.71-6.14-6.87-4.05-6.16-8.29-10.78-12.71-13.86-4.42-3.08-10.03-4.62-16.84-4.62-9.81,0-17.71,3.83-23.71,11.49-6,7.66-9,18.14-9,31.43,0,6.24.77,11.98,2.31,17.2,1.54,5.23,3.77,9.69,6.69,13.37,2.92,3.69,6.44,6.49,10.58,8.39,4.13,1.91,8.67,2.86,13.62,2.86,6.64,0,12.34-1.54,17.08-4.62,4.74-3.08,8.94-7.78,12.58-14.1,2.02-3.73,4.21-6.64,6.56-8.75,2.35-2.11,5.23-3.16,8.63-3.16,4.05,0,7.42,1.54,10.09,4.62,2.67,3.08,4.01,6.36,4.01,9.85Z"/>
      <path class="cls-4" d="m1293.63,595.94v49.24c4.21-4.86,8.33-8.71,12.34-11.55,4.01-2.84,8.45-4.96,13.31-6.38,4.86-1.42,10.09-2.13,15.68-2.13,8.43,0,15.91,1.78,22.43,5.35,6.52,3.57,11.65,8.75,15.38,15.56,2.35,3.97,3.93,8.41,4.74,13.31.81,4.91,1.22,10.56,1.22,16.96v63.59c0,6.65-1.52,11.67-4.56,15.08-3.04,3.4-7.07,5.11-12.1,5.11-10.94,0-16.41-6.73-16.41-20.18v-56.05c0-10.62-1.58-18.78-4.74-24.5-3.16-5.71-9.16-8.57-17.99-8.57-5.92,0-11.25,1.68-15.99,5.05-4.74,3.36-8.29,7.96-10.64,13.8-1.78,4.94-2.67,13.74-2.67,26.38v43.89c0,6.56-1.48,11.57-4.44,15.01-2.96,3.44-7.07,5.17-12.34,5.17-10.94,0-16.41-6.73-16.41-20.18v-143.95c0-6.73,1.44-11.77,4.32-15.14,2.88-3.36,6.91-5.05,12.1-5.05s9.38,1.7,12.34,5.11c2.96,3.4,4.44,8.43,4.44,15.08Z"/>
      <path class="cls-4" d="m1441.71,643.48v4.01c5.84-7.7,12.22-13.35,19.15-16.96,6.93-3.61,14.89-5.41,23.89-5.41s16.57,1.91,23.46,5.71c6.89,3.81,12.04,9.2,15.44,16.17,2.19,4.05,3.61,8.43,4.25,13.13.65,4.7.97,10.7.97,17.99v61.76c0,6.65-1.52,11.67-4.56,15.08-3.04,3.4-6.99,5.11-11.85,5.11s-8.96-1.74-12.04-5.23c-3.08-3.48-4.62-8.47-4.62-14.95v-55.32c0-10.94-1.52-19.31-4.56-25.11-3.04-5.79-9.1-8.69-18.18-8.69-5.92,0-11.31,1.76-16.17,5.29-4.86,3.53-8.43,8.37-10.7,14.53-1.62,4.94-2.43,14.18-2.43,27.72v41.58c0,6.73-1.56,11.77-4.68,15.14-3.12,3.36-7.15,5.04-12.1,5.04s-8.71-1.74-11.79-5.23c-3.08-3.48-4.62-8.47-4.62-14.95v-95.93c0-6.32,1.38-11.04,4.13-14.16,2.75-3.12,6.52-4.68,11.31-4.68,2.92,0,5.55.69,7.9,2.07,2.35,1.38,4.24,3.45,5.65,6.2,1.42,2.76,2.13,6.12,2.13,10.09Z"/>
      <path class="cls-4" d="m1686.21,692.6c0,9.89-1.54,19.01-4.62,27.36-3.08,8.35-7.54,15.52-13.37,21.52-5.84,6-12.81,10.6-20.91,13.8-8.11,3.2-17.23,4.8-27.36,4.8s-19.09-1.62-27.11-4.86c-8.03-3.24-14.98-7.88-20.85-13.92-5.88-6.04-10.33-13.17-13.37-21.4-3.04-8.23-4.56-17.33-4.56-27.29s1.54-19.25,4.62-27.6c3.08-8.35,7.5-15.48,13.25-21.4,5.75-5.92,12.72-10.48,20.91-13.68,8.19-3.2,17.22-4.8,27.11-4.8s19.17,1.62,27.36,4.86c8.19,3.24,15.2,7.86,21.03,13.86,5.84,6,10.27,13.13,13.31,21.4,3.04,8.27,4.56,17.39,4.56,27.36Zm-33.31,0c0-13.54-2.98-24.07-8.94-31.61-5.96-7.54-13.96-11.31-24.01-11.31-6.49,0-12.2,1.68-17.14,5.04-4.94,3.37-8.75,8.33-11.43,14.89-2.68,6.57-4.01,14.22-4.01,22.98s1.32,16.25,3.95,22.74c2.63,6.49,6.4,11.45,11.31,14.89,4.9,3.45,10.68,5.17,17.33,5.17,10.05,0,18.05-3.79,24.01-11.37,5.96-7.58,8.94-18.05,8.94-31.43Z"/>
      <path class="cls-4" d="m1712.35,739.9v-143.95c0-6.65,1.48-11.67,4.44-15.08,2.96-3.4,6.95-5.11,11.98-5.11s9.08,1.68,12.16,5.05c3.08,3.36,4.62,8.41,4.62,15.14v143.95c0,6.73-1.56,11.77-4.68,15.14-3.12,3.36-7.15,5.04-12.1,5.04s-8.81-1.74-11.85-5.23c-3.04-3.48-4.56-8.47-4.56-14.95Z"/>
      <path class="cls-4" d="m1904.09,692.6c0,9.89-1.54,19.01-4.62,27.36-3.08,8.35-7.54,15.52-13.37,21.52-5.84,6-12.81,10.6-20.91,13.8-8.11,3.2-17.23,4.8-27.36,4.8s-19.09-1.62-27.11-4.86c-8.03-3.24-14.98-7.88-20.85-13.92-5.88-6.04-10.33-13.17-13.37-21.4-3.04-8.23-4.56-17.33-4.56-27.29s1.54-19.25,4.62-27.6c3.08-8.35,7.5-15.48,13.25-21.4,5.75-5.92,12.72-10.48,20.91-13.68,8.19-3.2,17.22-4.8,27.11-4.8s19.17,1.62,27.36,4.86c8.19,3.24,15.2,7.86,21.03,13.86,5.84,6,10.27,13.13,13.31,21.4,3.04,8.27,4.56,17.39,4.56,27.36Zm-33.31,0c0-13.54-2.98-24.07-8.94-31.61-5.96-7.54-13.96-11.31-24.01-11.31-6.49,0-12.2,1.68-17.14,5.04-4.94,3.37-8.75,8.33-11.43,14.89-2.68,6.57-4.01,14.22-4.01,22.98s1.32,16.25,3.95,22.74c2.63,6.49,6.4,11.45,11.31,14.89,4.9,3.45,10.68,5.17,17.33,5.17,10.05,0,18.05-3.79,24.01-11.37,5.96-7.58,8.94-18.05,8.94-31.43Z"/>
      <path class="cls-4" d="m2052.3,649.44v96.41c0,11.02-1.18,20.51-3.53,28.45-2.35,7.94-6.12,14.51-11.31,19.7-5.19,5.19-11.98,9.04-20.37,11.55-8.39,2.51-18.83,3.77-31.31,3.77-11.43,0-21.64-1.6-30.64-4.8-9-3.2-15.93-7.34-20.79-12.4-4.86-5.07-7.29-10.27-7.29-15.62,0-4.05,1.38-7.36,4.13-9.91,2.75-2.55,6.08-3.83,9.97-3.83,4.86,0,9.12,2.15,12.77,6.44,1.78,2.19,3.63,4.4,5.53,6.63,1.9,2.23,4.01,4.13,6.32,5.71,2.31,1.58,5.08,2.75,8.33,3.53,3.24.77,6.97,1.16,11.19,1.16,8.59,0,15.26-1.2,20-3.59,4.74-2.39,8.06-5.74,9.97-10.03,1.9-4.3,3.02-8.9,3.34-13.8.32-4.9.57-12.79.73-23.65-5.11,7.13-11,12.56-17.69,16.29-6.69,3.73-14.65,5.59-23.89,5.59-11.11,0-20.81-2.84-29.12-8.51-8.31-5.67-14.69-13.62-19.15-23.83-4.46-10.21-6.69-22.01-6.69-35.38,0-9.97,1.36-18.97,4.07-26.99,2.71-8.02,6.58-14.79,11.61-20.3,5.03-5.51,10.82-9.67,17.39-12.46,6.57-2.8,13.78-4.19,21.64-4.19,9.4,0,17.55,1.8,24.44,5.41,6.89,3.61,13.29,9.26,19.21,16.96v-4.5c0-5.75,1.42-10.21,4.26-13.37,2.84-3.16,6.48-4.74,10.94-4.74,6.4,0,10.66,2.09,12.77,6.26,2.11,4.18,3.16,10.19,3.16,18.06Zm-96.17,42.07c0,13.46,2.94,23.63,8.81,30.52,5.88,6.89,13.47,10.33,22.8,10.33,5.51,0,10.72-1.48,15.62-4.44,4.9-2.96,8.89-7.42,11.98-13.37,3.08-5.96,4.62-13.19,4.62-21.7,0-13.54-2.98-24.07-8.94-31.61-5.96-7.54-13.8-11.31-23.53-11.31s-17.08,3.61-22.8,10.82c-5.71,7.22-8.57,17.47-8.57,30.76Z"/>
      <path class="cls-4" d="m2116.49,764.21l3.04-7.42-40.85-102.86c-2.51-5.92-3.77-10.21-3.77-12.89,0-2.84.73-5.47,2.19-7.9s3.47-4.38,6.02-5.84c2.55-1.46,5.21-2.19,7.96-2.19,4.78,0,8.39,1.52,10.82,4.56,2.43,3.04,4.58,7.4,6.44,13.07l28.08,81.7,26.63-75.99c2.11-6.16,4.01-10.98,5.71-14.47,1.7-3.48,3.5-5.84,5.41-7.05,1.9-1.22,4.6-1.82,8.08-1.82,2.51,0,4.92.67,7.23,2.01,2.31,1.34,4.09,3.14,5.35,5.41,1.26,2.27,1.88,4.66,1.88,7.17-.32,1.54-.85,3.73-1.58,6.57-.73,2.84-1.62,5.71-2.67,8.63l-43.28,113.31c-3.73,9.97-7.38,17.79-10.94,23.46-3.57,5.67-8.29,10.03-14.16,13.07-5.88,3.04-13.8,4.56-23.77,4.56s-17.02-1.05-21.88-3.16c-4.86-2.11-7.29-5.96-7.29-11.55,0-3.81,1.16-6.75,3.46-8.81,2.31-2.07,5.73-3.1,10.27-3.1,1.78,0,3.53.24,5.23.73,2.11.49,3.93.73,5.47.73,3.81,0,6.81-.57,9-1.7,2.19-1.14,4.15-3.1,5.9-5.9,1.74-2.8,3.75-6.91,6.02-12.34Z"/>
    </g>
  </g>
</svg>